<?xml version="1.0" standalone="no"?>
<!DOCTYPE svg PUBLIC "-//W3C//DTD SVG 20010904//EN"
 "http://www.w3.org/TR/2001/REC-SVG-20010904/DTD/svg10.dtd">
<svg version="1.0" xmlns="http://www.w3.org/2000/svg"
 width="256.000000pt" height="256.000000pt" viewBox="0 0 256.000000 256.000000"
 preserveAspectRatio="xMidYMid meet">
<metadata>
Created by potrace 1.11, written by Peter Selinger 2001-2013
</metadata>
<g transform="translate(0.000000,256.000000) scale(0.100000,-0.100000)"
fill="#000000" stroke="none">
<path d="M0 1280 l0 -1280 1280 0 1280 0 0 1280 0 1280 -1280 0 -1280 0 0
-1280z m2013 547 c-4 -7 6 -4 21 7 25 16 28 16 23 2 -4 -9 -2 -16 3 -16 6 0
10 4 10 9 0 16 53 -2 57 -20 3 -11 13 -19 22 -20 12 0 11 -2 -4 -9 -11 -5 -14
-9 -7 -9 6 -1 12 -6 12 -12 0 -5 -5 -7 -12 -3 -8 5 -9 0 -6 -14 4 -12 2 -20
-3 -16 -5 3 -9 -1 -10 -8 0 -10 -2 -10 -6 0 -2 6 -9 12 -15 12 -6 0 -8 -6 -5
-14 4 -11 -2 -13 -25 -9 -17 2 -28 1 -25 -5 4 -5 0 -9 -8 -9 -8 0 -11 5 -8 11
3 6 0 5 -7 -1 -10 -9 -17 -10 -27 -1 -10 8 -12 7 -8 -4 4 -9 0 -15 -9 -15 -8
0 -13 4 -10 9 3 4 0 8 -5 8 -6 0 -11 -8 -12 -17 0 -12 -2 -13 -6 -5 -4 10 -8
10 -21 0 -13 -11 -15 -11 -8 2 4 8 0 6 -8 -4 -9 -11 -16 -16 -16 -12 0 5 -8 2
-17 -5 -11 -10 -14 -10 -9 -2 5 10 1 11 -18 3 -14 -5 -26 -7 -26 -4 0 4 -7 1
-15 -6 -8 -6 -19 -9 -25 -5 -5 3 -10 0 -10 -8 0 -10 -7 -13 -20 -10 -11 3 -27
0 -35 -7 -11 -9 -15 -9 -15 -1 0 7 -4 10 -10 6 -5 -3 -7 -13 -4 -23 3 -9 -1
-7 -8 5 -13 22 -14 22 -26 3 -7 -12 -8 -21 -2 -25 6 -4 7 -11 4 -17 -4 -7 -2
-8 4 -4 7 4 12 2 12 -4 0 -6 5 -8 10 -5 9 6 15 -8 11 -29 -1 -5 5 -6 13 -3 8
3 17 0 20 -8 3 -10 0 -12 -11 -8 -11 4 -14 2 -9 -5 4 -7 16 -12 27 -12 17 0
18 -3 8 -21 -9 -17 -8 -20 2 -14 8 6 11 4 7 -7 -4 -8 2 -22 13 -31 11 -10 16
-23 13 -32 -4 -10 -2 -15 7 -13 8 2 13 -3 11 -9 -1 -7 2 -13 6 -13 5 0 14 -12
20 -26 7 -14 8 -23 2 -19 -6 3 -7 -1 -4 -9 3 -9 9 -14 14 -11 4 2 6 -7 4 -20
-2 -25 31 -60 47 -49 4 2 10 0 14 -6 4 -6 19 -5 42 5 33 14 34 14 22 -2 -13
-15 -12 -15 9 -4 12 6 22 9 22 5 0 -3 6 -1 14 5 11 9 16 9 22 0 5 -8 3 -9 -6
-4 -9 6 -11 4 -5 -4 5 -9 10 -10 18 -2 7 7 15 7 24 -1 11 -9 13 -8 11 2 -2 7
3 15 10 17 7 3 12 -3 13 -14 0 -16 1 -16 9 2 6 13 9 15 9 5 1 -9 4 -11 9 -5 4
6 14 10 22 10 8 -1 21 3 28 8 7 6 15 7 19 3 3 -3 1 -6 -5 -6 -7 0 -12 -4 -12
-10 0 -6 9 -6 25 0 17 7 25 6 25 -1 0 -8 5 -7 15 1 15 12 16 11 19 -11 0 -7
10 -15 21 -20 13 -5 15 -8 5 -8 -12 -1 -12 -3 -2 -10 10 -6 10 -10 -2 -20 -11
-9 -13 -18 -6 -31 8 -15 5 -16 -18 -12 -25 5 -26 4 -12 -14 15 -18 14 -18 -14
0 -16 10 -25 13 -22 7 4 -6 0 -11 -9 -11 -10 0 -13 5 -9 13 6 9 5 9 -7 0 -9
-7 -20 -9 -29 -3 -9 5 -19 5 -26 -1 -7 -6 -28 -11 -46 -11 -18 0 -39 -6 -47
-12 -12 -9 -13 -8 -8 7 3 9 2 17 -3 17 -6 0 -10 -5 -10 -11 0 -5 -5 -7 -12 -3
-7 4 -22 8 -34 9 -15 0 -20 -4 -16 -15 5 -13 3 -13 -11 -1 -12 10 -17 10 -17
2 0 -8 -6 -7 -16 4 -12 11 -20 13 -29 5 -16 -13 -14 -32 5 -56 8 -10 10 -15 3
-11 -13 8 -12 -18 2 -30 4 -4 5 -2 0 6 -6 10 -4 12 4 7 8 -6 9 -12 2 -20 -6
-7 -7 -17 -3 -21 4 -5 1 -5 -5 -1 -8 4 -13 1 -13 -9 0 -10 -5 -13 -12 -9 -8 5
-9 2 -5 -9 4 -10 2 -17 -4 -17 -6 0 -8 -7 -5 -16 5 -14 4 -15 -9 -4 -8 7 -16
9 -16 4 -7 -46 -6 -52 12 -49 11 2 24 7 29 10 6 3 11 -2 11 -12 1 -17 2 -17 6
-1 4 16 6 16 20 3 8 -8 19 -13 24 -10 5 4 9 0 9 -7 0 -9 3 -9 10 2 6 10 10 11
10 3 0 -8 13 -13 30 -13 22 0 30 -5 30 -17 0 -11 3 -14 8 -8 9 13 27 13 39 1
5 -5 2 -6 -6 -1 -10 6 -12 4 -7 -4 6 -9 11 -9 24 1 9 8 13 8 9 2 -4 -7 0 -15
9 -18 10 -4 13 -2 9 7 -4 6 1 3 10 -8 9 -11 21 -19 27 -17 6 1 17 -5 25 -15 8
-10 11 -12 7 -4 -5 10 -3 12 5 7 7 -5 10 -14 7 -22 -3 -8 0 -14 6 -14 6 0 8
-3 5 -7 -4 -3 -1 -13 6 -21 11 -13 9 -14 -13 -2 l-25 13 19 -22 c19 -21 19
-21 1 -15 -11 5 -16 4 -12 -3 8 -13 -25 -13 -42 1 -11 9 -13 6 -7 -14 5 -17 4
-21 -2 -11 -5 7 -15 10 -21 7 -6 -4 -14 0 -17 8 -3 9 -17 16 -29 16 -13 0 -27
5 -30 10 -5 8 -12 7 -23 -2 -12 -10 -14 -10 -8 0 4 7 2 12 -4 12 -6 0 -8 5 -4
13 5 8 2 8 -9 -2 -15 -12 -21 -9 -19 10 1 3 -11 4 -25 1 -18 -3 -24 -1 -19 7
4 6 2 11 -3 11 -6 0 -11 -4 -11 -9 0 -12 -19 -9 -45 7 -13 7 -15 12 -6 12 8 0
12 3 9 6 -3 3 -16 -1 -28 -8 -18 -10 -24 -10 -27 0 -3 6 -9 10 -14 7 -5 -4
-24 -2 -43 3 -30 9 -34 8 -29 -6 4 -10 3 -14 -2 -10 -13 12 -45 -11 -39 -27 4
-8 -1 -18 -10 -21 -9 -3 -13 -10 -10 -15 3 -5 -1 -9 -9 -9 -8 0 -14 -8 -13
-17 0 -10 -4 -17 -11 -16 -7 2 -10 -3 -7 -11 3 -8 0 -17 -7 -22 -8 -5 -10 -3
-4 6 5 9 4 11 -4 6 -9 -6 -9 -11 0 -22 10 -12 9 -13 -6 -8 -13 5 -16 4 -11 -4
4 -7 2 -12 -4 -12 -6 0 -9 -3 -6 -8 2 -4 -3 -16 -11 -27 -15 -19 -15 -19 -8 5
7 24 7 24 -8 5 -8 -11 -13 -24 -9 -30 3 -5 -3 -3 -13 5 -10 8 -16 10 -12 3 4
-6 3 -14 -3 -18 -5 -3 -10 -1 -10 6 0 15 -15 2 -15 -14 -1 -7 -5 -11 -10 -10
-6 0 -17 -6 -25 -15 -13 -14 -12 -15 3 -9 11 4 16 3 12 -3 -3 -6 -14 -10 -23
-11 -14 0 -13 -2 3 -9 12 -5 14 -9 6 -9 -8 -1 -11 -4 -8 -7 4 -4 13 -1 22 6
12 10 15 10 15 -1 0 -9 3 -10 8 -4 11 15 32 17 32 2 0 -8 4 -7 10 3 6 9 10 10
10 3 0 -12 30 -10 52 3 6 4 8 3 4 -4 -7 -12 41 -11 61 1 6 4 15 2 19 -4 4 -8
9 -7 15 2 6 10 9 10 9 2 0 -8 11 -11 31 -9 23 3 29 0 25 -11 -3 -8 -2 -11 4
-8 5 3 15 -5 22 -17 12 -24 19 -70 9 -64 -3 2 -15 -8 -26 -23 -15 -21 -16 -23
-2 -12 15 12 17 12 11 -3 -3 -9 -10 -16 -14 -16 -4 0 -10 -9 -13 -20 -4 -14
-10 -18 -23 -13 -11 4 -15 3 -11 -4 4 -6 -4 -10 -19 -10 -14 0 -32 -9 -40 -19
-9 -11 -13 -14 -10 -8 8 15 -21 26 -30 12 -5 -7 -2 -8 6 -3 9 5 11 4 6 -4 -6
-9 -11 -9 -22 0 -11 9 -14 8 -15 -7 -1 -17 -2 -17 -6 -2 -3 14 -8 16 -23 8
-24 -13 -81 -20 -75 -9 6 9 -69 4 -86 -7 -8 -4 -10 -3 -5 4 4 7 3 12 -3 12 -5
0 -13 -5 -17 -11 -4 -8 -9 -7 -15 2 -5 8 -9 9 -9 4 0 -6 -12 -12 -26 -13 -15
-1 -33 -7 -40 -12 -9 -8 -14 -7 -20 1 -5 8 -3 9 6 4 9 -6 11 -4 6 4 -6 9 -13
8 -27 -5 -15 -13 -19 -14 -20 -3 0 10 -2 11 -6 1 -2 -6 -9 -10 -14 -6 -5 3 -9
-1 -9 -8 0 -9 -3 -9 -10 2 -6 9 -10 11 -10 3 0 -7 -7 -10 -16 -6 -9 3 -20 0
-25 -8 -7 -12 -9 -12 -9 0 0 11 -3 11 -17 0 -15 -12 -16 -12 -8 1 8 13 7 13
-8 1 -14 -11 -17 -11 -17 0 0 11 -2 11 -10 -1 -6 -10 -10 -11 -10 -2 0 6 -12
12 -26 12 -14 0 -23 4 -19 10 3 5 -4 11 -17 11 -38 2 -63 -3 -69 -13 -3 -5 -9
-2 -13 7 -3 9 -11 13 -17 9 -21 -13 -77 -10 -72 4 3 7 -3 12 -17 12 -11 0 -19
4 -15 10 3 5 -3 18 -15 30 -11 11 -15 20 -10 20 6 0 10 6 9 12 -4 33 26 78 48
71 6 -2 15 1 19 8 4 8 3 9 -4 5 -8 -4 -10 -2 -6 8 3 9 12 12 22 9 16 -6 16 -5
0 13 -17 19 -18 22 -18 50 0 8 -4 12 -10 9 -5 -3 -10 2 -10 12 0 25 -19 43
-44 44 -21 0 -21 0 -1 9 12 5 14 9 6 9 -8 1 -11 4 -8 8 4 3 -1 12 -11 20 -16
14 -16 14 2 8 19 -6 19 -5 3 13 -9 10 -14 22 -10 25 3 4 1 7 -5 7 -7 0 -11 6
-10 13 2 6 -5 11 -14 11 -14 -1 -15 2 -8 17 9 15 7 17 -11 14 -12 -3 -19 -2
-16 2 4 3 -1 12 -11 20 -16 12 -16 13 3 7 17 -4 16 -3 -3 8 -12 8 -20 16 -18
19 3 3 -7 5 -21 4 -15 0 -28 -6 -31 -13 -2 -6 -8 -10 -13 -6 -5 3 -9 0 -9 -6
0 -7 -6 -10 -14 -7 -8 3 -20 -2 -28 -11 -11 -13 -11 -14 1 -7 10 6 12 4 7 -4
-5 -7 -14 -10 -22 -7 -8 3 -14 -1 -14 -10 0 -8 -13 -17 -31 -21 -19 -4 -28
-10 -25 -19 3 -9 0 -11 -11 -7 -9 4 -21 -1 -29 -11 -6 -10 -15 -17 -18 -17
-24 3 -30 0 -16 -9 13 -9 13 -10 0 -11 -8 -1 -18 -1 -22 0 -5 0 -8 -6 -8 -15
0 -14 -3 -14 -15 -4 -13 11 -14 10 -9 -4 3 -9 1 -16 -5 -16 -6 0 -11 8 -12 18
0 13 -2 12 -9 -5 -5 -13 -12 -23 -15 -23 -4 0 -4 3 -2 8 3 4 -1 12 -8 19 -11
10 -15 10 -19 0 -4 -7 -4 -2 -2 11 3 14 -1 22 -9 22 -20 0 -10 36 17 62 13 13
16 17 6 9 -10 -8 -18 -10 -18 -5 0 13 39 36 50 29 5 -3 7 4 5 16 -3 16 -1 18
9 10 10 -9 15 -8 20 4 3 9 10 14 15 10 6 -3 15 3 21 14 7 13 16 18 27 14 11
-4 14 -3 9 5 -4 7 -1 12 7 12 8 0 22 10 31 22 9 13 14 17 11 11 -9 -19 2 -16
25 7 11 11 29 20 41 20 11 0 17 4 14 10 -3 6 3 10 14 10 11 0 23 5 26 10 4 6
10 8 14 6 4 -3 8 1 8 9 0 12 -4 12 -21 -2 -17 -15 -18 -15 -8 -2 7 9 12 21 11
25 -1 5 0 11 1 14 1 3 3 13 5 23 3 14 0 16 -10 7 -11 -9 -12 -7 -8 9 3 12 10
18 17 14 6 -4 5 0 -2 9 -10 12 -10 18 -1 23 8 6 7 10 -2 16 -10 6 -11 9 -1 9
7 0 12 13 12 31 0 16 -4 28 -8 25 -5 -3 -9 1 -9 9 0 8 4 12 8 9 4 -2 10 0 14
6 3 5 -1 10 -10 10 -15 0 -15 1 -1 16 18 17 21 28 6 19 -5 -3 -10 -1 -10 4 0
6 5 11 10 11 7 0 7 7 0 21 -7 11 -9 23 -6 27 3 3 6 0 6 -6 0 -7 4 -12 10 -12
5 0 9 3 9 8 -4 21 2 42 10 38 5 -4 8 5 6 19 -1 16 3 25 12 25 8 0 11 5 8 10
-3 6 -1 10 6 10 8 0 7 5 -2 17 -10 11 -10 14 -1 9 6 -4 12 -2 12 3 0 6 5 10
11 8 6 -1 14 4 17 12 3 9 0 11 -8 6 -9 -5 -11 -4 -6 4 6 9 11 9 22 0 8 -6 14
-9 14 -6 0 3 3 12 6 21 5 12 -1 15 -30 13 -19 -2 -33 0 -30 4 2 4 0 10 -5 13
-5 4 -13 1 -16 -4 -5 -7 -12 -5 -22 7 -9 11 -12 12 -8 3 4 -8 -1 -6 -9 4 -15
19 -16 19 -16 1 0 -18 -1 -18 -16 1 -8 10 -12 12 -8 4 5 -10 -1 -8 -16 5 -13
11 -20 14 -16 8 4 -7 2 -13 -3 -13 -6 0 -11 7 -11 16 0 14 -2 15 -17 3 -15
-13 -15 -12 -3 11 12 23 12 24 -3 11 -12 -9 -17 -10 -17 -2 0 7 -5 9 -11 5 -7
-4 -7 1 1 16 7 12 8 20 3 17 -5 -3 -15 -2 -23 4 -8 5 -10 9 -4 9 11 0 12 66 1
77 -9 9 -9 25 1 20 4 -3 8 11 9 31 1 20 7 38 13 40 5 2 10 8 10 13 0 6 -6 7
-12 4 -7 -4 -5 0 4 8 10 8 15 17 11 20 -3 4 1 7 10 7 9 0 19 5 23 12 5 7 3 8
-6 3 -9 -5 -11 -4 -6 3 4 7 15 12 24 12 15 0 15 2 2 10 -15 10 -6 13 42 13 10
0 15 4 12 8 -3 5 2 12 11 16 10 3 21 0 26 -8 7 -12 9 -12 9 0 0 11 3 11 15 1
12 -10 15 -10 15 1 1 9 5 8 15 -5 15 -20 15 -20 15 0 0 10 4 15 8 9 11 -15 47
-42 39 -29 -3 6 0 11 8 11 8 0 14 -3 13 -6 0 -3 0 -13 2 -21 1 -11 4 -9 10 5
8 19 9 19 9 -3 1 -13 5 -21 10 -18 9 6 52 -27 53 -41 0 -4 5 -7 11 -5 6 2 5
-4 -3 -12 -9 -12 -9 -16 -1 -16 7 0 9 -5 5 -12 -4 -6 -3 -8 4 -4 6 3 20 -4 31
-16 14 -14 21 -17 21 -8 0 7 3 11 6 7 8 -7 44 25 38 34 -2 4 4 6 15 4 15 -3
18 0 14 12 -4 10 -2 14 4 10 6 -4 14 0 17 9 3 8 10 12 16 9 5 -3 18 -1 27 4
10 6 14 11 10 11 -5 0 -5 5 -2 10 5 8 11 7 21 -1 12 -10 15 -10 12 2 -2 8 3
13 11 11 7 -2 23 5 35 15 14 13 17 13 9 2 -11 -13 -9 -15 7 -14 11 1 27 10 35
21 9 11 14 13 13 5 -2 -7 3 -16 11 -19 8 -2 11 0 7 6 -3 5 1 13 10 16 8 3 13
2 10 -3 -3 -5 1 -12 10 -15 8 -3 13 -2 10 3 -3 5 1 12 10 15 8 3 12 2 9 -4 -7
-12 23 -9 44 4 10 6 12 5 7 -2 -4 -7 -3 -12 3 -12 5 0 12 4 16 10 3 5 13 6 22
3 10 -4 14 -2 10 4 -4 6 3 9 18 7 14 -1 25 1 25 5 0 4 15 6 33 5 17 -1 32 -2
32 -3 0 -8 36 -7 41 0 3 5 10 7 15 3 5 -3 7 -10 4 -15 -4 -5 -1 -9 4 -9 6 0
11 8 12 18 0 14 2 14 9 -3 5 -11 9 -14 9 -8 1 9 8 10 25 3 16 -6 27 -5 35 3 9
9 11 8 6 -4 -4 -10 -1 -20 6 -25 8 -4 10 -3 5 4 -4 7 -1 12 9 12 10 0 13 5 9
13 -5 8 -2 8 9 -2 13 -10 17 -10 17 -1 0 10 3 10 15 0 12 -10 15 -9 15 6 0 17
1 17 15 -2 15 -18 15 -18 8 0 -4 13 -3 17 5 12 6 -3 14 -1 18 5 5 9 11 6 22
-7 11 -15 13 -15 9 -2 -3 9 0 19 9 22 9 4 12 2 8 -5 -3 -6 6 -3 22 7 15 11 25
14 21 7 -5 -7 0 -9 13 -6 11 3 20 10 20 15 0 5 -5 6 -12 2 -7 -4 -8 -3 -4 4 4
6 13 9 21 5 9 -3 23 1 32 8 12 10 15 10 9 2 -8 -14 6 -18 18 -5 4 4 17 7 29 7
13 1 21 6 19 14 -1 7 2 10 8 6 6 -3 7 -12 3 -18z m-1698 -453 c36 -2 50 -9 57
-27 4 -10 12 -16 17 -12 5 3 13 0 17 -6 4 -8 3 -9 -4 -5 -7 4 -12 2 -12 -3 0
-6 5 -11 10 -11 6 0 10 -7 10 -15 0 -8 5 -15 11 -15 8 0 8 -5 -1 -15 -8 -10
-9 -15 -2 -15 7 0 9 -7 5 -17 -4 -9 -2 -14 3 -10 5 3 10 -3 10 -13 0 -10 -3
-17 -7 -14 -4 2 -9 -3 -13 -11 -3 -10 1 -15 12 -16 15 -1 15 -2 -1 -6 -10 -3
-16 -10 -14 -17 6 -15 -28 -58 -38 -48 -5 4 -5 -2 -1 -12 5 -16 4 -17 -9 -6
-12 10 -15 10 -15 0 0 -10 -3 -10 -15 0 -13 11 -14 10 -9 -3 8 -23 -25 -15
-46 11 -10 12 -21 18 -24 14 -4 -3 -4 1 -1 10 4 9 1 19 -6 24 -8 5 -10 3 -4
-6 5 -8 4 -11 -3 -6 -6 3 -9 16 -7 27 4 18 2 19 -12 7 -13 -10 -15 -10 -9 0 4
7 2 20 -6 29 -11 14 -11 16 1 9 9 -6 8 -1 -3 16 -9 14 -13 28 -9 32 5 4 8 22
9 39 0 24 7 35 25 44 14 8 18 13 9 14 -8 0 -3 5 13 11 15 5 27 14 27 19 0 6
-5 7 -12 3 -7 -4 -8 -3 -4 5 4 6 13 8 19 4 7 -4 21 -8 32 -9z m1545 -134 c0
-5 -2 -10 -4 -10 -3 0 -8 5 -11 10 -3 6 -1 10 4 10 6 0 11 -4 11 -10z m288
-165 c-3 -3 -9 2 -12 12 -6 14 -5 15 5 6 7 -7 10 -15 7 -18z m-262 0 c-1 -8
-5 -17 -8 -21 -5 -4 -4 16 1 34 3 9 9 -1 7 -13z m-44 -199 c7 4 8 2 4 -5 -9
-13 -26 -5 -25 12 0 9 2 8 6 -1 2 -6 10 -9 15 -6z m-1048 -404 c3 -5 -1 -9 -9
-9 -8 0 -12 4 -9 9 3 4 7 8 9 8 2 0 6 -4 9 -8z m1484 -22 c2 0 0 -6 -4 -12 -5
-9 -2 -8 9 1 10 8 20 11 24 7 3 -3 1 -6 -5 -6 -7 0 -12 -5 -12 -11 0 -5 5 -7
10 -4 6 3 10 1 10 -5 0 -6 5 -8 12 -4 7 4 8 3 4 -5 -4 -6 -3 -17 2 -24 12 -14
4 -77 -10 -77 -5 0 -6 5 -2 12 4 6 3 8 -4 4 -6 -3 -9 -19 -6 -34 3 -18 2 -23
-5 -13 -7 11 -13 9 -30 -8 -12 -12 -21 -16 -21 -8 0 8 -4 7 -10 -3 -5 -8 -10
-11 -10 -6 0 5 -6 3 -14 -3 -11 -9 -16 -9 -22 0 -5 8 -3 9 6 4 9 -5 11 -4 6 4
-4 6 -13 8 -19 4 -19 -12 -37 -12 -37 -1 0 6 -7 4 -17 -3 -9 -8 -14 -9 -11 -4
4 6 3 17 -3 25 -7 12 -9 11 -9 -5 0 -16 -2 -17 -10 -5 -5 9 -5 19 2 27 8 10 7
12 -5 8 -17 -7 -26 4 -33 41 -3 17 -1 23 7 19 8 -6 8 -2 0 14 -10 18 -9 21 6
21 14 0 15 2 4 9 -9 6 -10 11 -2 15 6 4 16 4 22 0 7 -4 7 2 -1 17 -10 19 -10
22 0 12 13 -12 43 -7 35 6 -2 4 2 8 10 8 8 0 15 -5 15 -11 0 -6 5 -3 11 6 9
15 14 16 57 3 26 -8 48 -15 50 -15z m-1845 -104 c-5 -7 -2 -7 8 1 10 8 19 9
29 1 12 -8 12 -9 -3 -4 -11 3 -16 2 -12 -4 3 -6 15 -10 26 -10 10 0 19 -5 19
-11 0 -5 -6 -7 -12 -3 -7 4 -4 -3 7 -16 11 -13 14 -20 7 -16 -11 6 -13 0 -12
-25 3 -50 1 -61 -9 -54 -6 3 -8 -3 -6 -14 3 -15 -1 -19 -17 -16 -15 3 -17 1
-9 -8 7 -10 3 -13 -16 -15 -14 -1 -31 -6 -38 -12 -6 -5 -15 -7 -18 -3 -4 3
-14 0 -22 -7 -9 -7 -15 -9 -13 -4 2 5 -1 10 -7 12 -5 1 -10 -2 -10 -7 0 -5 -4
-13 -8 -18 -5 -4 -7 -2 -5 6 2 7 -3 16 -11 19 -9 3 -11 0 -6 -8 6 -9 3 -9 -14
0 -12 6 -32 13 -43 15 -12 3 -26 10 -32 16 -8 9 -8 10 1 5 6 -3 15 -2 18 4 4
6 3 10 -2 9 -4 -1 -15 -1 -23 0 -13 1 -13 2 0 11 13 9 13 10 0 10 -13 0 -13 1
0 10 8 5 10 10 3 10 -13 0 -12 25 2 37 4 4 5 2 0 -6 -5 -9 -4 -12 3 -7 6 4 9
13 5 22 -7 20 25 54 45 47 11 -5 14 -2 9 10 -4 12 -1 15 15 12 12 -3 28 1 37
8 12 10 13 9 6 -3 -5 -9 0 -8 13 4 12 11 25 16 29 13 3 -4 13 -1 21 6 13 10
14 9 8 -2 -6 -9 -5 -12 5 -9 8 3 13 11 11 18 -3 11 0 11 12 1 9 -7 13 -18 9
-25z m-179 -214 c3 -5 -1 -9 -9 -9 -8 0 -12 4 -9 9 3 4 7 8 9 8 2 0 6 -4 9 -8z"/>
<path d="M389 1123 c-13 -16 -12 -17 4 -4 9 7 17 15 17 17 0 8 -8 3 -21 -13z"/>
<path d="M290 1091 c0 -5 5 -13 10 -16 6 -3 10 -2 10 4 0 5 -4 13 -10 16 -5 3
-10 2 -10 -4z"/>
<path d="M230 295 c-7 -9 -8 -15 -2 -15 5 0 12 7 16 15 3 8 4 15 2 15 -2 0 -9
-7 -16 -15z"/>
</g>
</svg>
